<?xml version="1.0" standalone="no"?><!DOCTYPE svg PUBLIC "-//W3C//DTD SVG 1.1//EN" "http://www.w3.org/Graphics/SVG/1.1/DTD/svg11.dtd"><svg t="1694115478559" class="icon" viewBox="0 0 1024 1024" version="1.1" xmlns="http://www.w3.org/2000/svg" p-id="3836" xmlns:xlink="http://www.w3.org/1999/xlink" width="200" height="200"><path d="M666.666667 429.973333c6.933333-16.32-0.64-35.093333-16.96-41.92-16.106667-6.933333-34.986667 0.64-41.92 16.853334-27.413333 64.32-90.24 105.92-160.213334 105.92-70.08 0-133.013333-41.493333-160.32-105.813334-6.933333-16.32-25.92-23.786667-41.92-16.96-16.32 6.933333-23.893333 25.706667-16.96 41.92 18.88 44.48 50.24 80.96 88.96 106.24-146.453333 50.133333-254.08 181.44-254.08 330.88 0 17.706667 14.293333 32 32 32s32-14.293333 32-32c0-156.373333 146.56-288.533333 320-288.533333 5.866667 0 11.413333-1.6 16.106667-4.373333 89.28-5.76 168-61.12 203.306667-144.213334zM224.853333 320.533333h445.226667c13.12 0 24.96-8 29.76-20.266666 5.76-14.613333 5.546667-29.973333-0.853333-44.373334-8.64-19.733333-27.306667-33.386667-41.6-41.386666-0.106667-0.426667-0.213333-0.746667-0.213334-1.066667C625.173333 84.693333 460.693333 67.946667 453.653333 67.2c-2.026667-0.213333-4.053333-0.106667-5.973333 0.106667-2.026667-0.213333-4.16-0.32-6.293333-0.106667-7.04 0.64-171.733333 17.386667-203.733334 146.346667-0.106667 0.32-0.213333 0.64-0.213333 1.066666-14.186667 7.893333-32.853333 21.546667-41.493333 41.386667-6.293333 14.4-6.613333 29.76-0.746667 44.48 4.8 12.053333 16.533333 20.053333 29.653333 20.053333z m72.853334-80.64c0.426667-3.733333 1.173333-7.466667 2.026666-10.88 21.013333-84.586667 146.346667-97.813333 147.626667-97.92h0.426667c1.28 0.106667 126.4 13.333333 147.52 98.346667 0.96 3.52 1.6 7.146667 2.026666 10.986667 0.64 6.08 3.2 11.733333 6.826667 16.32H290.666667c3.84-4.906667 6.4-10.666667 7.04-16.853334zM576 608c0 17.706667 14.293333 32 32 32h256c17.706667 0 32-14.293333 32-32s-14.293333-32-32-32H608c-17.706667 0-32 14.293333-32 32zM864 701.973333H608c-17.706667 0-32 14.293333-32 32s14.293333 32 32 32h256c17.706667 0 32-14.293333 32-32s-14.293333-32-32-32zM864 829.973333H608c-17.706667 0-32 14.293333-32 32s14.293333 32 32 32h256c17.706667 0 32-14.293333 32-32s-14.293333-32-32-32z" p-id="3837"></path></svg>