<?xml version="1.0" standalone="no"?><!DOCTYPE svg PUBLIC "-//W3C//DTD SVG 1.1//EN" "http://www.w3.org/Graphics/SVG/1.1/DTD/svg11.dtd"><svg t="1694115498943" class="icon" viewBox="0 0 1024 1024" version="1.1" xmlns="http://www.w3.org/2000/svg" p-id="3975" xmlns:xlink="http://www.w3.org/1999/xlink" width="200" height="200"><path d="M868.373333 128H155.413333C104.96 128 64 174.826667 64 232.32v433.386667c0 57.493333 40.96 104.213333 91.413333 104.213333h712.96c50.453333 0 91.626667-46.72 91.626667-104.213333V232.32c0-57.493333-41.173333-104.32-91.626667-104.32z m-712.96 64h712.96c14.72 0 27.626667 18.88 27.626667 40.32V384H128V232.32c0-21.866667 12.48-40.32 27.413333-40.32z m712.96 514.026667H155.413333c-14.826667 0-27.413333-18.453333-27.413333-40.213334V448h768v217.706667c0 21.866667-12.586667 40.32-27.626667 40.32zM688.64 832H335.36c-17.706667 0-32 14.293333-32 32s14.293333 32 32 32h353.28c17.706667 0 32-14.293333 32-32s-14.293333-32-32-32z" p-id="3976"></path><path d="M800 288m-32 0a32 32 0 1 0 64 0 32 32 0 1 0-64 0Z" p-id="3977"></path><path d="M672 288m-32 0a32 32 0 1 0 64 0 32 32 0 1 0-64 0Z" p-id="3978"></path><path d="M544 288m-32 0a32 32 0 1 0 64 0 32 32 0 1 0-64 0Z" p-id="3979"></path><path d="M800 576H365.226667l-54.613334-54.613333c-11.946667-11.946667-31.146667-12.48-43.84-1.28l-72 64c-13.226667 11.733333-14.4 32-2.666666 45.226666 6.293333 7.146667 15.146667 10.773333 23.893333 10.773334 7.573333 0 15.146667-2.666667 21.226667-8.106667l49.493333-44.053333 42.666667 42.666666c5.973333 5.973333 14.08 9.386667 22.613333 9.386667h448c17.706667 0 32-14.293333 32-32s-14.293333-32-32-32z" p-id="3980"></path></svg>