<?xml version="1.0" standalone="no"?><!DOCTYPE svg PUBLIC "-//W3C//DTD SVG 1.1//EN" "http://www.w3.org/Graphics/SVG/1.1/DTD/svg11.dtd"><svg t="1694115555143" class="icon" viewBox="0 0 1024 1024" version="1.1" xmlns="http://www.w3.org/2000/svg" p-id="4228" xmlns:xlink="http://www.w3.org/1999/xlink" width="200" height="200"><path d="M864 576H608c-17.706667 0-32 14.293333-32 32s14.293333 32 32 32h256c17.706667 0 32-14.293333 32-32s-14.293333-32-32-32zM864 701.973333H608c-17.706667 0-32 14.293333-32 32s14.293333 32 32 32h256c17.706667 0 32-14.293333 32-32s-14.293333-32-32-32zM864 829.973333H608c-17.706667 0-32 14.293333-32 32s14.293333 32 32 32h256c17.706667 0 32-14.293333 32-32s-14.293333-32-32-32zM445.973333 574.08c3.413333 0 6.72-0.533333 9.706667-1.493333 63.893333-2.453333 123.626667-28.373333 169.066667-73.92 47.786667-47.786667 74.026667-111.253333 74.026666-178.88 0-67.52-26.346667-131.093333-74.026666-178.88C577.066667 93.226667 513.6 66.88 445.973333 66.88c-67.52 0-131.093333 26.346667-178.88 74.026667C219.413333 188.8 193.066667 252.266667 193.066667 319.786667c0 67.52 26.346667 131.093333 74.026666 178.88 13.333333 13.333333 27.946667 24.96 43.413334 34.88-4.48 1.6-8.96 3.306667-13.44 5.013333-45.333333 18.133333-86.293333 43.946667-121.706667 76.8-35.306667 32.746667-63.04 70.506667-82.666667 112.426667-20.16 43.52-30.4 89.173333-30.4 135.68 0 17.706667 14.293333 32 32 32H352c17.706667 0 32-14.293333 32-32s-14.293333-32-32-32H128.32c18.24-142.506667 156.266667-257.386667 317.653333-257.386667zM257.066667 319.786667c0-104.213333 84.8-188.906667 188.906666-188.906667s188.906667 84.8 188.906667 188.906667S550.186667 508.8 445.973333 508.8 257.066667 424 257.066667 319.786667z" p-id="4229"></path></svg>